<?xml version="1.0" encoding="utf-8" standalone="no"?>
<!DOCTYPE svg PUBLIC "-//W3C//DTD SVG 1.1//EN"
  "http://www.w3.org/Graphics/SVG/1.1/DTD/svg11.dtd">
<!-- Created with matplotlib (https://matplotlib.org/) -->
<svg height="288pt" version="1.1" viewBox="0 0 432 288" width="432pt" xmlns="http://www.w3.org/2000/svg" xmlns:xlink="http://www.w3.org/1999/xlink">
 <defs>
  <style type="text/css">
*{stroke-linecap:butt;stroke-linejoin:round;}
  </style>
 </defs>
 <g id="figure_1">
  <g id="patch_1">
   <path d="M 0 288 
L 432 288 
L 432 0 
L 0 0 
z
" style="fill:#ffffff;"/>
  </g>
  <g id="axes_1">
   <g id="patch_2">
    <path d="M 54 252 
L 388.8 252 
L 388.8 34.56 
L 54 34.56 
z
" style="fill:#ffffff;"/>
   </g>
   <g id="matplotlib.axis_1">
    <g id="xtick_1">
     <g id="line2d_1">
      <defs>
       <path d="M 0 0 
L 0 3.5 
" id="m9b2e69473d" style="stroke:#000000;stroke-width:0.8;"/>
      </defs>
      <g>
       <use style="stroke:#000000;stroke-width:0.8;" x="103.036364" xlink:href="#m9b2e69473d" y="252"/>
      </g>
     </g>
     <g id="text_1">
      <!-- 2 -->
      <defs>
       <path d="M 40.484375 28.484375 
L 27.703125 17.65625 
Q 22.921875 13.65625 18.25 7.8125 
L 42.640625 7.8125 
Q 46.734375 7.8125 48.296875 10.25 
Q 49.5625 12.296875 51.421875 20.296875 
L 54.734375 20.296875 
L 53.265625 0 
L 9.46875 0 
L 9.46875 2.734375 
Q 14.4375 8.484375 18.921875 13.46875 
Q 19.03125 13.5625 27.421875 22.828125 
Q 31.03125 26.828125 34.640625 30.828125 
Q 39.421875 36.09375 41.953125 41.703125 
Q 44.484375 47.3125 44.484375 52.1875 
Q 44.484375 58.140625 41.265625 61.65625 
Q 38.046875 65.171875 32.09375 65.171875 
Q 25.46875 65.171875 20.984375 61.953125 
Q 16.875 59.03125 16.875 55.21875 
Q 16.875 53.75 17.5625 53.21875 
Q 18.25 52.6875 20.09375 52.1875 
Q 24.984375 50.734375 24.984375 46.34375 
Q 24.984375 43.8125 23.3125 42.25 
Q 21.65625 40.6875 19.125 40.6875 
Q 16 40.6875 13.84375 43.40625 
Q 11.703125 46.140625 11.703125 50.4375 
Q 11.703125 58.53125 17.703125 63.75 
Q 23.703125 68.96875 33.078125 68.96875 
Q 42.25 68.96875 48.1875 63.796875 
Q 54.140625 58.640625 54.140625 50.53125 
Q 54.140625 45.078125 50.78125 39.703125 
Q 47.421875 34.34375 40.484375 28.484375 
z
" id="AppleMyungjo-50"/>
      </defs>
      <g transform="translate(99.841051 266.307813)scale(0.1 -0.1)">
       <use xlink:href="#AppleMyungjo-50"/>
      </g>
     </g>
    </g>
    <g id="xtick_2">
     <g id="line2d_2">
      <g>
       <use style="stroke:#000000;stroke-width:0.8;" x="170.672727" xlink:href="#m9b2e69473d" y="252"/>
      </g>
     </g>
     <g id="text_2">
      <!-- 4 -->
      <defs>
       <path d="M 7.125 22.046875 
L 39.8125 67.609375 
L 42.921875 67.609375 
L 42.921875 21.46875 
L 54.25 21.46875 
L 54.25 17.359375 
L 42.921875 17.359375 
L 42.921875 7.03125 
Q 42.921875 5.46875 44.28125 4.578125 
Q 45.65625 3.703125 47.703125 3.703125 
L 51.8125 3.703125 
L 51.8125 0 
L 24.78125 0 
L 24.78125 3.703125 
L 29.75 3.703125 
Q 34.828125 3.703125 34.828125 7.90625 
L 34.828125 17.359375 
L 7.125 17.359375 
z
M 34.828125 21.46875 
L 34.828125 54.4375 
L 11.21875 21.46875 
z
" id="AppleMyungjo-52"/>
      </defs>
      <g transform="translate(167.477415 266.307813)scale(0.1 -0.1)">
       <use xlink:href="#AppleMyungjo-52"/>
      </g>
     </g>
    </g>
    <g id="xtick_3">
     <g id="line2d_3">
      <g>
       <use style="stroke:#000000;stroke-width:0.8;" x="238.309091" xlink:href="#m9b2e69473d" y="252"/>
      </g>
     </g>
     <g id="text_3">
      <!-- 6 -->
      <defs>
       <path d="M 8.59375 30.921875 
Q 8.59375 47.515625 16.875 58.4375 
Q 24.875 68.96875 36.59375 68.96875 
Q 43.125 68.96875 47.90625 65.609375 
Q 52.6875 62.25 52.6875 57.46875 
Q 52.6875 54.4375 50.875 52.53125 
Q 49.078125 50.640625 46.25 50.640625 
Q 43.8125 50.640625 42.09375 52.25 
Q 40.390625 53.859375 40.390625 56.09375 
Q 40.390625 57.359375 41.859375 59.90625 
Q 42.640625 61.265625 42.640625 62.046875 
Q 42.640625 63.515625 40.96875 64.484375 
Q 39.3125 65.46875 36.484375 65.46875 
Q 28.59375 65.46875 23.5625 57.359375 
Q 18.53125 49.265625 18.53125 36 
L 18.640625 32 
Q 22.25 36.6875 26.140625 38.921875 
Q 30.53125 41.46875 36 41.46875 
Q 43.90625 41.46875 49.40625 36.046875 
Q 54.921875 30.640625 54.921875 22.046875 
Q 54.921875 12 48.625 5.3125 
Q 42.34375 -1.359375 32.484375 -1.359375 
Q 21.65625 -1.359375 15.125 7.515625 
Q 8.59375 16.390625 8.59375 30.921875 
z
M 33.265625 36.6875 
Q 27.03125 36.6875 23.21875 32.1875 
Q 19.421875 27.703125 19.421875 19.90625 
Q 19.421875 11.515625 23.078125 6.828125 
Q 26.734375 2.140625 32.6875 2.140625 
Q 38.734375 2.140625 42.140625 6.53125 
Q 45.5625 10.921875 45.5625 19.421875 
Q 45.5625 36.6875 33.265625 36.6875 
z
" id="AppleMyungjo-54"/>
      </defs>
      <g transform="translate(235.113778 266.307813)scale(0.1 -0.1)">
       <use xlink:href="#AppleMyungjo-54"/>
      </g>
     </g>
    </g>
    <g id="xtick_4">
     <g id="line2d_4">
      <g>
       <use style="stroke:#000000;stroke-width:0.8;" x="305.945455" xlink:href="#m9b2e69473d" y="252"/>
      </g>
     </g>
     <g id="text_4">
      <!-- 8 -->
      <defs>
       <path d="M 11.8125 50.828125 
Q 11.8125 58.34375 17.609375 63.65625 
Q 23.421875 68.96875 32.390625 68.96875 
Q 41.359375 68.96875 46.828125 64.578125 
Q 52.296875 60.1875 52.296875 53.5625 
Q 52.296875 44.484375 40.59375 38.25 
Q 48 35.609375 51.609375 31.21875 
Q 55.21875 26.828125 55.21875 20 
Q 55.21875 10.734375 48.78125 4.6875 
Q 42.34375 -1.359375 31.515625 -1.359375 
Q 21.265625 -1.359375 15.0625 3.65625 
Q 8.875 8.6875 8.875 16.390625 
Q 8.875 22.734375 12.734375 26.78125 
Q 16.59375 30.828125 24.6875 33.65625 
Q 11.8125 39.21875 11.8125 50.828125 
z
M 36.78125 39.515625 
Q 41.46875 42.140625 43.125 44.390625 
Q 45.359375 47.421875 45.359375 52.875 
Q 45.359375 59.03125 41.9375 62.25 
Q 38.53125 65.46875 32.203125 65.46875 
Q 25.75 65.46875 22.046875 62.53125 
Q 18.34375 59.609375 18.34375 54.53125 
Q 18.34375 48.578125 22.921875 45.359375 
Q 26.34375 42.921875 36.78125 39.515625 
z
M 28.296875 32.296875 
Q 21.953125 29.5625 19.21875 26.34375 
Q 16.09375 22.640625 16.09375 16.6875 
Q 16.09375 9.65625 20.140625 5.890625 
Q 24.203125 2.140625 31.90625 2.140625 
Q 39.609375 2.140625 44.234375 5.890625 
Q 48.875 9.65625 48.875 16.1875 
Q 48.875 23.125 41.078125 27.125 
Q 37.46875 28.96875 28.296875 32.296875 
z
" id="AppleMyungjo-56"/>
      </defs>
      <g transform="translate(302.750142 266.307813)scale(0.1 -0.1)">
       <use xlink:href="#AppleMyungjo-56"/>
      </g>
     </g>
    </g>
    <g id="xtick_5">
     <g id="line2d_5">
      <g>
       <use style="stroke:#000000;stroke-width:0.8;" x="373.581818" xlink:href="#m9b2e69473d" y="252"/>
      </g>
     </g>
     <g id="text_5">
      <!-- 10 -->
      <defs>
       <path d="M 34.4375 67.609375 
L 36.78125 67.609375 
L 36.78125 6.828125 
Q 36.78125 5.359375 38 4.53125 
Q 39.21875 3.703125 41.171875 3.703125 
L 50.640625 3.703125 
L 50.640625 0 
L 15.609375 0 
L 15.609375 3.703125 
L 23.703125 3.703125 
Q 28.6875 3.703125 28.6875 8 
L 28.6875 54.046875 
Q 28.6875 55.515625 27.515625 56.484375 
Q 26.34375 57.46875 24.59375 57.46875 
L 13.75 57.46875 
L 13.75 60.78125 
Q 20.6875 61.5625 24.984375 62.921875 
Q 30.25 64.578125 34.4375 67.609375 
z
" id="AppleMyungjo-49"/>
       <path d="M 31.8125 68.96875 
Q 42.53125 68.96875 48.96875 59.75 
Q 55.421875 50.53125 55.421875 33.859375 
Q 55.421875 17.359375 49.03125 8 
Q 42.640625 -1.359375 32.296875 -1.359375 
Q 21.75 -1.359375 15.3125 8.046875 
Q 8.875 17.46875 8.875 33.75 
Q 8.875 49.859375 15.171875 59.40625 
Q 21.46875 68.96875 31.8125 68.96875 
z
M 32.09375 65.46875 
Q 24.390625 65.46875 21.3125 57.953125 
Q 18.25 50.4375 18.25 33.953125 
Q 18.25 17.265625 21.3125 9.703125 
Q 24.390625 2.140625 32.09375 2.140625 
Q 39.515625 2.140625 42.78125 9.609375 
Q 46.046875 17.078125 46.046875 33.171875 
Q 46.046875 49.953125 43.03125 57.359375 
Q 39.703125 65.46875 32.09375 65.46875 
z
" id="AppleMyungjo-48"/>
      </defs>
      <g transform="translate(367.191193 266.307813)scale(0.1 -0.1)">
       <use xlink:href="#AppleMyungjo-49"/>
       <use x="63.902435" xlink:href="#AppleMyungjo-48"/>
      </g>
     </g>
    </g>
   </g>
   <g id="matplotlib.axis_2">
    <g id="ytick_1">
     <g id="line2d_6">
      <defs>
       <path d="M 0 0 
L -3.5 0 
" id="mbbd0133f16" style="stroke:#000000;stroke-width:0.8;"/>
      </defs>
      <g>
       <use style="stroke:#000000;stroke-width:0.8;" x="54" xlink:href="#mbbd0133f16" y="236.625455"/>
      </g>
     </g>
     <g id="text_6">
      <!-- 2.5 -->
      <defs>
       <path d="M 20.390625 10.640625 
Q 22.921875 10.640625 24.53125 8.921875 
Q 26.140625 7.21875 26.140625 4.6875 
Q 26.140625 2.140625 24.484375 0.390625 
Q 22.828125 -1.359375 20.296875 -1.359375 
Q 17.75 -1.359375 16.046875 0.34375 
Q 14.34375 2.046875 14.34375 4.578125 
Q 14.34375 6.921875 16.09375 8.78125 
Q 17.859375 10.640625 20.390625 10.640625 
z
" id="AppleMyungjo-46"/>
       <path d="M 14.828125 38.046875 
L 15.90625 52.484375 
Q 15.90625 55.8125 16.25 61.609375 
Q 16.59375 67.421875 16.59375 68.96875 
Q 22.34375 67.609375 27.796875 66.875 
Q 33.265625 66.140625 36.484375 66.140625 
Q 40.875 66.140625 44.390625 67.03125 
Q 47.03125 68 49.65625 68.96875 
L 50.046875 68.296875 
Q 50.046875 64.875 45.75 61.5625 
Q 40.6875 57.5625 33.171875 57.5625 
Q 29.859375 57.5625 26.6875 58 
Q 23.515625 58.4375 19.609375 59.21875 
L 17.953125 40.6875 
Q 21.859375 42.640625 24.484375 43.421875 
Q 27.90625 44.484375 31.515625 44.484375 
Q 40.875 44.484375 47.453125 38.1875 
Q 54.046875 31.90625 54.046875 22.34375 
Q 54.046875 11.90625 47.015625 5.265625 
Q 40 -1.359375 29.171875 -1.359375 
Q 20.59375 -1.359375 15.359375 3.359375 
Q 10.140625 8.09375 10.140625 14.921875 
Q 10.140625 18.828125 11.75 21.015625 
Q 13.359375 23.21875 16.09375 23.21875 
Q 18.640625 23.21875 20.296875 21.453125 
Q 21.953125 19.703125 21.953125 16.875 
Q 21.953125 14.046875 19.3125 12.78125 
Q 17.65625 11.90625 17.171875 11.609375 
Q 16.09375 10.828125 16.09375 9.859375 
Q 16.09375 7.125 19.65625 4.625 
Q 23.21875 2.140625 28.59375 2.140625 
Q 44.09375 2.140625 44.09375 21.75 
Q 44.09375 30.734375 40.1875 35.40625 
Q 36.296875 40.09375 29.171875 40.09375 
Q 23.421875 40.09375 17.5625 35.90625 
Q 17.265625 33.078125 16.6875 31.8125 
Q 15.8125 30.140625 14.046875 30.140625 
Q 11.90625 30.140625 11.90625 32.78125 
Q 11.90625 34.53125 13.078125 36 
Q 13.953125 36.96875 14.828125 38.046875 
z
" id="AppleMyungjo-53"/>
      </defs>
      <g transform="translate(30.21875 240.279361)scale(0.1 -0.1)">
       <use xlink:href="#AppleMyungjo-50"/>
       <use x="63.902435" xlink:href="#AppleMyungjo-46"/>
       <use x="103.90242" xlink:href="#AppleMyungjo-53"/>
      </g>
     </g>
    </g>
    <g id="ytick_2">
     <g id="line2d_7">
      <g>
       <use style="stroke:#000000;stroke-width:0.8;" x="54" xlink:href="#mbbd0133f16" y="209.170909"/>
      </g>
     </g>
     <g id="text_7">
      <!-- 5.0 -->
      <g transform="translate(30.21875 212.824815)scale(0.1 -0.1)">
       <use xlink:href="#AppleMyungjo-53"/>
       <use x="63.902435" xlink:href="#AppleMyungjo-46"/>
       <use x="103.90242" xlink:href="#AppleMyungjo-48"/>
      </g>
     </g>
    </g>
    <g id="ytick_3">
     <g id="line2d_8">
      <g>
       <use style="stroke:#000000;stroke-width:0.8;" x="54" xlink:href="#mbbd0133f16" y="181.716364"/>
      </g>
     </g>
     <g id="text_8">
      <!-- 7.5 -->
      <defs>
       <path d="M 11.03125 45.75 
L 14.4375 68.96875 
Q 19.703125 67.609375 24.875 67.609375 
L 55.21875 67.609375 
L 55.21875 65.46875 
Q 50.34375 56.96875 47.703125 51.3125 
Q 43.515625 42.4375 41.171875 33.953125 
Q 38.828125 25.46875 37.65625 7.8125 
Q 37.078125 -1.359375 31.8125 -1.359375 
Q 26.53125 -1.359375 26.53125 5.75 
Q 26.53125 11.21875 30.140625 21.46875 
Q 34.34375 33.359375 42.046875 47.515625 
L 48.78125 60 
L 22.25 60 
Q 18.828125 60 17.359375 56.96875 
Q 16.296875 54.828125 14.4375 45.75 
z
" id="AppleMyungjo-55"/>
      </defs>
      <g transform="translate(30.21875 185.37027)scale(0.1 -0.1)">
       <use xlink:href="#AppleMyungjo-55"/>
       <use x="63.902435" xlink:href="#AppleMyungjo-46"/>
       <use x="103.90242" xlink:href="#AppleMyungjo-53"/>
      </g>
     </g>
    </g>
    <g id="ytick_4">
     <g id="line2d_9">
      <g>
       <use style="stroke:#000000;stroke-width:0.8;" x="54" xlink:href="#mbbd0133f16" y="154.261818"/>
      </g>
     </g>
     <g id="text_9">
      <!-- 10.0 -->
      <g transform="translate(23.828125 157.915724)scale(0.1 -0.1)">
       <use xlink:href="#AppleMyungjo-49"/>
       <use x="63.902435" xlink:href="#AppleMyungjo-48"/>
       <use x="127.804871" xlink:href="#AppleMyungjo-46"/>
       <use x="167.804855" xlink:href="#AppleMyungjo-48"/>
      </g>
     </g>
    </g>
    <g id="ytick_5">
     <g id="line2d_10">
      <g>
       <use style="stroke:#000000;stroke-width:0.8;" x="54" xlink:href="#mbbd0133f16" y="126.807273"/>
      </g>
     </g>
     <g id="text_10">
      <!-- 12.5 -->
      <g transform="translate(23.828125 130.461179)scale(0.1 -0.1)">
       <use xlink:href="#AppleMyungjo-49"/>
       <use x="63.902435" xlink:href="#AppleMyungjo-50"/>
       <use x="127.804871" xlink:href="#AppleMyungjo-46"/>
       <use x="167.804855" xlink:href="#AppleMyungjo-53"/>
      </g>
     </g>
    </g>
    <g id="ytick_6">
     <g id="line2d_11">
      <g>
       <use style="stroke:#000000;stroke-width:0.8;" x="54" xlink:href="#mbbd0133f16" y="99.352727"/>
      </g>
     </g>
     <g id="text_11">
      <!-- 15.0 -->
      <g transform="translate(23.828125 103.006634)scale(0.1 -0.1)">
       <use xlink:href="#AppleMyungjo-49"/>
       <use x="63.902435" xlink:href="#AppleMyungjo-53"/>
       <use x="127.804871" xlink:href="#AppleMyungjo-46"/>
       <use x="167.804855" xlink:href="#AppleMyungjo-48"/>
      </g>
     </g>
    </g>
    <g id="ytick_7">
     <g id="line2d_12">
      <g>
       <use style="stroke:#000000;stroke-width:0.8;" x="54" xlink:href="#mbbd0133f16" y="71.898182"/>
      </g>
     </g>
     <g id="text_12">
      <!-- 17.5 -->
      <g transform="translate(23.828125 75.552088)scale(0.1 -0.1)">
       <use xlink:href="#AppleMyungjo-49"/>
       <use x="63.902435" xlink:href="#AppleMyungjo-55"/>
       <use x="127.804871" xlink:href="#AppleMyungjo-46"/>
       <use x="167.804855" xlink:href="#AppleMyungjo-53"/>
      </g>
     </g>
    </g>
    <g id="ytick_8">
     <g id="line2d_13">
      <g>
       <use style="stroke:#000000;stroke-width:0.8;" x="54" xlink:href="#mbbd0133f16" y="44.443636"/>
      </g>
     </g>
     <g id="text_13">
      <!-- 20.0 -->
      <g transform="translate(23.828125 48.097543)scale(0.1 -0.1)">
       <use xlink:href="#AppleMyungjo-50"/>
       <use x="63.902435" xlink:href="#AppleMyungjo-48"/>
       <use x="127.804871" xlink:href="#AppleMyungjo-46"/>
       <use x="167.804855" xlink:href="#AppleMyungjo-48"/>
      </g>
     </g>
    </g>
   </g>
   <g id="line2d_14">
    <path clip-path="url(#pd60f287d47)" d="M 69.218182 242.116364 
L 103.036364 220.152727 
L 136.854545 198.189091 
L 170.672727 176.225455 
L 204.490909 154.261818 
L 238.309091 132.298182 
L 272.127273 110.334545 
L 305.945455 88.370909 
L 339.763636 66.407273 
L 373.581818 44.443636 
" style="fill:none;stroke:#1f77b4;stroke-linecap:square;stroke-width:1.5;"/>
   </g>
   <g id="patch_3">
    <path d="M 54 252 
L 54 34.56 
" style="fill:none;stroke:#000000;stroke-linecap:square;stroke-linejoin:miter;stroke-width:0.8;"/>
   </g>
   <g id="patch_4">
    <path d="M 388.8 252 
L 388.8 34.56 
" style="fill:none;stroke:#000000;stroke-linecap:square;stroke-linejoin:miter;stroke-width:0.8;"/>
   </g>
   <g id="patch_5">
    <path d="M 54 252 
L 388.8 252 
" style="fill:none;stroke:#000000;stroke-linecap:square;stroke-linejoin:miter;stroke-width:0.8;"/>
   </g>
   <g id="patch_6">
    <path d="M 54 34.56 
L 388.8 34.56 
" style="fill:none;stroke:#000000;stroke-linecap:square;stroke-linejoin:miter;stroke-width:0.8;"/>
   </g>
  </g>
 </g>
 <defs>
  <clipPath id="pd60f287d47">
   <rect height="217.44" width="334.8" x="54" y="34.56"/>
  </clipPath>
 </defs>
</svg>
